<svg width="33" height="20" viewBox="0 0 33 20" fill="none" xmlns="http://www.w3.org/2000/svg">
<path d="M14.092 0.858032C14.7507 0.858032 15.288 1.0747 15.704 1.50803C16.1373 1.94137 16.354 2.5047 16.354 3.19803V17.108C16.354 17.8187 16.146 18.3907 15.73 18.824C15.314 19.2574 14.7767 19.474 14.118 19.474C13.338 19.474 12.7487 19.214 12.35 18.694L4.446 8.84003V17.108C4.446 17.8187 4.24667 18.3907 3.848 18.824C3.44933 19.2574 2.912 19.474 2.236 19.474C1.57733 19.474 1.04 19.2574 0.624 18.824C0.208 18.3907 0 17.8187 0 17.108V3.19803C0 2.5047 0.208 1.94137 0.624 1.50803C1.04 1.0747 1.57733 0.858032 2.236 0.858032C2.98133 0.858032 3.562 1.11803 3.978 1.63803L11.882 11.466V3.19803C11.882 2.48737 12.0813 1.92403 12.48 1.50803C12.896 1.0747 13.4333 0.858032 14.092 0.858032Z" fill="url(#paint0_linear_18048_164)"/>
<path d="M29.9477 6.26603C30.6584 6.26603 31.2217 6.4567 31.6377 6.83803C32.0537 7.21937 32.2617 7.73937 32.2617 8.39803V17.394C32.2617 18.0007 32.0451 18.5034 31.6117 18.902C31.1784 19.2834 30.6151 19.474 29.9217 19.474C29.2977 19.474 28.7864 19.3094 28.3877 18.98C27.9891 18.6334 27.7811 18.174 27.7637 17.602C27.3651 18.226 26.8537 18.7027 26.2297 19.032C25.6231 19.3614 24.9211 19.526 24.1237 19.526C22.4771 19.526 21.2551 19.0754 20.4577 18.174C19.6604 17.2554 19.2617 15.8687 19.2617 14.014V8.39803C19.2617 7.73937 19.4697 7.21937 19.8857 6.83803C20.3017 6.4567 20.8651 6.26603 21.5757 6.26603C22.2864 6.26603 22.8497 6.4567 23.2657 6.83803C23.6817 7.21937 23.8897 7.73937 23.8897 8.39803V14.118C23.8897 15.366 24.4271 15.99 25.5017 15.99C26.1257 15.99 26.6371 15.7647 27.0357 15.314C27.4344 14.8634 27.6337 14.274 27.6337 13.546V8.39803C27.6337 7.73937 27.8417 7.21937 28.2577 6.83803C28.6737 6.4567 29.2371 6.26603 29.9477 6.26603Z" fill="url(#paint1_linear_18048_164)"/>
<defs>
<linearGradient id="paint0_linear_18048_164" x1="35.3857" y1="19.318" x2="35.8857" y2="19.318" gradientUnits="userSpaceOnUse">
<stop stop-color="#FD377E"/>
<stop offset="1" stop-color="white"/>
</linearGradient>
<linearGradient id="paint1_linear_18048_164" x1="35.3857" y1="19.318" x2="35.8857" y2="19.318" gradientUnits="userSpaceOnUse">
<stop stop-color="#FD377E"/>
<stop offset="1" stop-color="white"/>
</linearGradient>
</defs>
</svg>
